<svg xmlns="http://www.w3.org/2000/svg" width="900" height="600" viewBox="0 0 90 60"><path fill="#003580" d="M90 0h-90v60z"/><path fill="#009543" d="M0 60h90v-60z"/><path fill="#fff" d="M0 48l72-48h18v12l-72 48h-18z"/><path fill="#d21034" d="M0 51l76.5-51h13.5v9l-76.5 51h-13.5z"/><path fill="#ffce00" d="M18 6.5l1.553 4.204 3.447-2.865-.757 4.418 4.418-.757-2.865 3.447 4.204 1.553-4.204 1.553 2.865 3.447-4.418-.757.757 4.418-3.447-2.865-1.553 4.204-1.553-4.204-3.447 2.865.757-4.418-4.418.757 2.865-3.447-4.204-1.553 4.204-1.553-2.865-3.447 4.418.757-.757-4.418 3.447 2.865z"/><circle cx="18" cy="16.5" r="5.5" fill="#ffce00" stroke="#003580"/></svg>