<svg xmlns="http://www.w3.org/2000/svg" xmlns:xlink="http://www.w3.org/1999/xlink" width="1200" height="600"><defs><clipPath id="b"><path d="M0 0h600v300h-600z"/></clipPath><clipPath id="c"><path d="M0 0l300 150h-300zm300 0h300l-300 150zm0 150h300v150zm0 0v150h-300z"/></clipPath><g id="d"><g id="a"><path d="M0-.325v.5l1-.5zM0-.325l-.294-.405 1.103-.183z"/></g><use transform="scale(-1 1)" xlink:href="#a"/><use transform="rotate(72 0 0)" xlink:href="#a"/><use transform="rotate(-72 0 0)" xlink:href="#a"/><use transform="rotate(-72 0 0) scale(-1 1)" xlink:href="#a"/></g></defs><path fill="#00247d" d="M0 0h1200v600h-1200z"/><g><path stroke="#fff" stroke-width="60" d="M0 0l600 300m-600 0l600-300" clip-path="url(#b)"/><path stroke="#cc142b" stroke-width="40" d="M0 0l600 300m-600 0l600-300" clip-path="url(#c)"/><g><path stroke="#fff" stroke-width="100" d="M300 0v300m-300-150h600" clip-path="url(#b)"/><path stroke="#cc142b" stroke-width="60" d="M300 0v300m-300-150h600" clip-path="url(#b)"/></g></g><g><g><use fill="#fff" transform="translate(900 120) scale(45.4)" xlink:href="#d"/><use fill="#cc142b" transform="translate(900 120) scale(30)" xlink:href="#d"/></g><g transform="rotate(82 900 240)"><use fill="#fff" transform="matrix(5.616 -39.996 39.996 5.616 900 120)" xlink:href="#d"/><use fill="#cc142b" transform="matrix(3.475 -24.75 24.75 3.475 900 120)" xlink:href="#d"/></g><g transform="rotate(82 900 240)"><use fill="#fff" transform="matrix(6.311 -44.946 44.946 6.311 900 380)" xlink:href="#d"/><use fill="#cc142b" transform="matrix(4.17 -29.7 29.7 4.17 900 380)" xlink:href="#d"/></g><g><use fill="#fff" transform="translate(900 480) scale(50.4)" xlink:href="#d"/><use fill="#cc142b" transform="translate(900 480) scale(35)" xlink:href="#d"/></g></g></svg>