<svg xmlns="http://www.w3.org/2000/svg" xmlns:xlink="http://www.w3.org/1999/xlink" width="1200" height="600" viewBox="0 0 12 6"><title>Flag of Slovenia</title><path fill="#ed1c24" d="M0 0h12v6h-12z"/><path fill="#005da4" d="M0 0h12v4h-12z"/><path fill="#fff" d="M0 0h12v2h-12z"/><svg width="12" height="15.459" transform="translate(2.224 1) scale(.129)" viewBox="-120 -190.223 240 309.188"><path fill="#005da4" d="M110.26-19.478l9.74-143.75a280.22 280.22 0 0 0-240 0l9.74 143.75a155.61 155.61 0 0 0 110.26 138.45 155.61 155.61 0 0 0 110.26-138.45"/><path fill="#fff" d="M-90 0a138.29 138.29 0 0 0 90 100.77 138.29 138.29 0 0 0 90-100.77l-45-60-18 24-27-54-27 54-18-24-45 60"/><path id="a" fill="#005da4" d="M-17.196-2.196a6 6 0 0 0 8.196 2.196 6 6 0 0 1 6 0 6 6 0 0 0 6 0 6 6 0 0 1 6 0 6 6 0 0 0 8.196-2.196v1.732a6 6 0 0 1-8.196 2.196 6 6 0 0 0-6 0 6 6 0 0 1-6 0 6 6 0 0 0-6 0 6 6 0 0 1-8.196-2.196z" transform="scale(5) translate(0 5.196)"/><use transform="translate(0 17.321)" xlink:href="#a"/><path id="b" fill="#fd0" d="M0-131.25l2.25 7.353 7.493-1.728-5.243 5.625 5.243 5.625-7.493-1.728-2.25 7.353-2.25-7.353-7.493 1.728 5.243-5.625-5.243-5.625 7.493 1.728z"/><use transform="translate(-33.75 -45)" xlink:href="#b"/><use transform="translate(33.75 -45)" xlink:href="#b"/><path fill="#ed1c24" d="M-111.58-167.05l9.96 146.99a146.95 146.95 0 0 0 101.62 129.95 146.95 146.95 0 0 0 101.62-129.95l9.96-146.99a280.22 280.22 0 0 0 8.42 3.82l-9.74 143.75a155.61 155.61 0 0 1-110.26 138.45 155.61 155.61 0 0 1-110.26-138.45l-9.74-143.75a280.22 280.22 0 0 0 8.42-3.82"/></svg></svg>