<svg xmlns="http://www.w3.org/2000/svg" xmlns:xlink="http://www.w3.org/1999/xlink" width="1800" height="900"><defs><g id="b"><g id="a"><path d="M1-.325h-1v.5zM.809-.913l-.809.588-.294-.405z"/></g><use transform="rotate(72)" xlink:href="#a"/><use transform="rotate(144)" xlink:href="#a"/><use transform="rotate(216)" xlink:href="#a"/><use transform="rotate(288)" xlink:href="#a"/></g></defs><path fill="#00247d" d="M0 0h1800v900h-1800z"/><g fill="#fed100"><path d="M329.376 777.265c-17.934-.15 168.623-99.431 324.769-226.6 204.644-166.666 645.396-433.509 774.971-476.87 13.543-4.532-27.776 23.073-33.14 32.015-138.341 163.74-27.925 472.724 144.973 628.048 51.99 39.763 49.327 41.851 145.707 45.746v9l-1357.28-11.34zM318.125 795.325s-13.163 9.403-13.125 16.406c.043 7.772 14.766 18.047 14.766 18.047l1338.745 14.766 24.609-16.406-34.453-21.328-1330.542-11.484z"/></g><g fill="#fff"><use transform="translate(342.957 112.581) scale(45)" xlink:href="#b"/><use transform="translate(521.205 267.53) scale(37.5)" xlink:href="#b"/><use transform="translate(135 321.808) scale(45)" xlink:href="#b"/><use transform="translate(342.957 652.581) scale(52.5)" xlink:href="#b"/></g></svg>